<svg
  width="220"
  height="220"
  viewBox="0 0 220 220"
  xmlns="http://www.w3.org/2000/svg"
>
  <rect x="0" y="0" width="220" height="220" fill="#f5f5f7" />
  <rect
    x="25"
    y="35"
    width="170"
    height="140"
    rx="16"
    ry="16"
    fill="#ffffff"
    stroke="#333333"
    stroke-width="3"
  />
  <rect
    x="25"
    y="35"
    width="170"
    height="24"
    rx="16"
    ry="16"
    fill="#f0f0f5"
  />

  <rect x="40" y="75" width="18" height="18" rx="3" fill="#ffc94a" />
  <rect x="162" y="75" width="18" height="18" rx="3" fill="#8fd5ff" />
  <rect x="40" y="135" width="18" height="18" rx="3" fill="#a3ffba" />
  <rect x="162" y="135" width="18" height="18" rx="3" fill="#ff8fa3" />

  <line x1="58" y1="84" x2="90" y2="96" stroke="#bbbbbb" stroke-width="2" />
  <line x1="180" y1="84" x2="130" y2="96" stroke="#bbbbbb" stroke-width="2" />
  <line x1="58" y1="144" x2="90" y2="130" stroke="#bbbbbb" stroke-width="2" />
  <line x1="180" y1="144" x2="130" y2="130" stroke="#bbbbbb" stroke-width="2" />

  <g transform="translate(60,65)">
    <path
      d="
        M 50 10
        C 36 8, 24 14, 20 26
        C 9 30, 5 42, 11 52
        C 5 60, 7 73, 16 79
        C 20 90, 32 94, 42 88
        C 45 95, 55 97, 60 90
        L 60 20
        C 58 11, 54 9, 50 10
        Z
      "
      fill="#ffffff"
      stroke="#333333"
      stroke-width="2.5"
    />

    <path
      d="
        M 70 10
        C 84 8, 96 14, 100 26
        C 111 30, 115 42, 109 52
        C 115 60, 113 73, 104 79
        C 100 90, 88 94, 78 88
        C 75 95, 65 97, 60 90
        L 60 20
        C 62 11, 66 9, 70 10
        Z
      "
      fill="#ffffff"
      stroke="#333333"
      stroke-width="2.5"
    />

    <path
      d="M60 14 C 55 26, 55 39, 60 50 C 65 61, 65 74, 60 86"
      fill="none"
      stroke="#888888"
      stroke-width="2"
    />

    <path
      d="M45 22 C 37 28, 35 36, 40 44"
      fill="none"
      stroke="#888888"
      stroke-width="2"
    />
    <path
      d="M40 54 C 32 60, 32 69, 39 76"
      fill="none"
      stroke="#888888"
      stroke-width="2"
    />

    <path
      d="M75 22 C 83 28, 85 36, 80 44"
      fill="none"
      stroke="#888888"
      stroke-width="2"
    />
    <path
      d="M80 54 C 88 60, 88 69, 81 76"
      fill="none"
      stroke="#888888"
      stroke-width="2"
    />

    <rect
      x="54"
      y="88"
      width="12"
      height="8"
      rx="2"
      fill="#ffc94a"
      stroke="#cc9c24"
      stroke-width="1.5"
    />
    <rect
      x="52"
      y="96"
      width="16"
      height="4"
      rx="2"
      fill="#ffc94a"
      stroke="#cc9c24"
      stroke-width="1.5"
    />
  </g>
</svg>
