<svg viewBox="10 20 100 70" xmlns="http://www.w3.org/2000/svg" fill="none" stroke="currentColor" stroke-width="4" stroke-linecap="round" stroke-linejoin="round">

  <!-- Board -->
  <rect x="10" y="20" width="100" height="70" rx="8"></rect>

  <!-- Lightbulb -->
  <path d="M60 35 
           C50 35, 45 42, 45 50 
           C45 56, 48 60, 52 63 
           C55 65, 55 68, 55 70 
           L65 70 
           C65 68, 65 65, 68 63 
           C72 60, 75 56, 75 50 
           C75 42, 70 35, 60 35 Z"></path>

  <!-- Bulb base -->
  <line x1="55" y1="74" x2="65" y2="74"></line>
  <line x1="56" y1="78" x2="64" y2="78"></line>

  <!-- Idea rays -->
  <line x1="60" y1="28" x2="60" y2="20"></line>
  <line x1="42" y1="35" x2="36" y2="29"></line>
  <line x1="78" y1="35" x2="84" y2="29"></line>

</svg>